<svg width="97" height="96" viewBox="0 0 97 96" fill="none" xmlns="http://www.w3.org/2000/svg">
<path d="M95.1815 43.1914H69.2144C69.6021 44.8187 69.8122 46.5158 69.8122 48.2618C69.8122 49.5896 69.6868 50.8872 69.4605 52.1498H82.6669C81.8405 67.7091 68.2301 81.223 51.9606 82.9877C34.7567 84.8536 18.6149 73.6414 14.2182 56.7706C9.95027 40.3948 18.3944 22.9963 33.993 16.1299C41.9357 12.6343 50.1313 12.1009 58.4129 14.6296C69.0391 17.8736 76.3434 25.0044 80.9549 35.0402H93.8189C87.1077 10.2663 60.8655 -4.28306 35.6911 2.44826C10.7175 9.126 -4.36344 35.1987 2.19102 60.3639C8.75129 85.556 34.9088 100.837 60.2132 94.2605C83.2333 88.2781 100.251 63.5531 95.1815 43.1914Z" fill="#121D57"/>
<path d="M66.4373 59.9122C62.5919 65.9842 55.8343 70.0156 48.1342 70.0156C36.1628 70.0156 26.457 60.2756 26.457 48.262C26.457 36.2483 36.1628 26.5084 48.1342 26.5084C55.3224 26.5084 61.6912 30.0225 65.6341 35.4295H71.3993C66.8818 27.2002 58.158 21.6221 48.1342 21.6221C33.4735 21.6221 21.5879 33.5495 21.5879 48.262C21.5879 62.9744 33.4735 74.9019 48.1342 74.9019C58.6316 74.9019 67.7048 68.7856 72.0121 59.911H66.4373V59.9122Z" fill="#121D57"/>
</svg>
