<svg width="56" height="111" viewBox="0 0 56 111" fill="none" xmlns="http://www.w3.org/2000/svg">
<path d="M46.6691 0.372165C44.0898 1.15683 46.3235 1.05185 43.6487 1.39244C38.5597 2.0403 30.9606 5.75196 25.8877 5.03595C21.2962 4.38824 17.872 6.6832 13.5331 5.03595C10.9893 4.07033 7.13239 8.35271 4.86031 6.83596C4.71313 7.30924 4.61312 18.8047 4.42851 19.2779C3.74208 21.0311 2.93694 22.7531 2.01881 24.3966C0.452173 27.2023 -0.252453 30.2072 0.256175 33.3237C0.72192 36.1796 1.62488 38.9667 2.38581 41.7705C2.51626 42.2529 2.89883 42.6685 3.42196 43.5465C3.32044 40.785 3.0635 38.5706 3.20769 36.3829C3.35215 34.1802 3.77544 31.9739 4.30214 29.8241C4.64056 28.4421 5.62436 27.3588 7.18901 27.2347C8.93289 27.0964 10.5267 27.6445 11.3664 29.2361C11.9041 30.2555 12.3549 31.5463 12.2253 32.6416C11.9881 34.6524 11.6144 36.7679 10.7256 38.5577C8.3819 43.2804 8.0271 48.0679 9.44982 53.0619C9.89639 54.6287 10.4018 56.1801 10.8604 57.7434C11.8239 61.0342 12.9366 64.2938 13.6872 67.6329C14.6347 71.8468 14.8439 76.1345 13.8546 80.3994C13.6149 81.4351 13.2745 82.4473 12.9811 83.4697C14.9694 81.502 15.8888 79.0762 16.4555 76.4965C17.5275 71.625 17.0684 66.7957 16.2218 61.9315C15.6072 58.3944 15.1188 54.7982 15.0441 51.2195C14.9949 48.8769 15.5837 46.4579 16.2627 44.184C16.8333 42.2716 18.3396 41.0482 20.5262 41.0515C22.6017 41.0545 24.0922 42.1687 24.9658 44.3583C25.8847 46.6618 25.8975 49.0546 25.5944 51.4602C25.1401 55.0756 23.8893 58.4316 22.3184 61.7091C19.3028 67.9975 20.5672 74.1179 23.2398 80.1599C23.5573 79.6061 23.5815 79.0488 23.6405 78.4947C23.9067 76.0226 24.0362 73.5246 24.5013 71.0902C24.8666 69.171 25.4874 67.2599 26.2835 65.4741C27.4 62.9693 29.086 62.0069 31.0525 62.354C33.1236 62.7204 34.385 64.307 34.5267 67.1377C34.612 68.8354 34.4841 70.5722 34.2175 72.2549C33.4572 77.0373 31.8602 81.5879 29.6666 85.8796C25.9232 93.206 24.2365 101.023 23.6248 109.137C23.5841 109.684 23.6515 110.238 23.6678 110.788C24.5139 108.432 24.9549 106.028 25.6373 103.695C28.0463 95.4582 32.0892 88.0241 36.8814 80.9382C38.5529 78.4668 40.1588 75.8502 41.2038 73.0785C43.7913 66.215 43.4891 59.5654 39.3212 53.1562C37.5243 50.393 36.4058 47.1574 35.2374 44.0394C34.7817 42.8238 34.8805 41.3291 35.0112 39.9902C35.1397 38.6745 36.1148 37.8888 37.4458 37.6875C38.7388 37.492 39.8942 37.829 40.5669 39.0023C40.9839 39.7303 41.3465 40.5742 41.4199 41.3952C41.5579 42.9219 41.6217 44.4893 41.432 46.0044C41.1897 47.9459 41.4083 49.7672 42.1531 51.5433C42.6168 52.65 43.0674 53.773 43.6479 54.8209C44.7622 56.8318 45.1763 58.9937 45.2621 61.2477C45.2831 61.7977 45.3077 62.3469 45.331 62.8972C46.7421 59.9926 47.1088 57.0463 46.1337 54.0109C45.6876 52.6226 45.1921 51.2482 44.8109 49.8416C44.5213 48.7737 44.2658 47.6555 45.1587 46.5926C46.6153 46.1305 47.4396 46.8579 47.7364 48.2167C48.1332 50.0341 48.3914 51.8813 48.7082 53.7155C50.1441 50.7597 50.3209 47.8418 48.8742 44.8429C48.0242 43.0788 47.3379 41.1929 46.8885 39.2888C45.3331 32.6893 46.8102 26.9717 51.9298 22.416C50.9555 22.7785 56.2726 19.1496 55.5008 12.3558L46.6691 0.372165Z" fill="#D0423B"/>
</svg>
